<?xml version="1.0" encoding="UTF-8" standalone="no"?>
<!DOCTYPE svg PUBLIC "-//W3C//DTD SVG 1.1//EN"
 "http://www.w3.org/Graphics/SVG/1.1/DTD/svg11.dtd">
<!-- Generated by graphviz version 14.1.2 (20260124.0452)
 -->
<!-- Pages: 1 -->
<svg width="720pt" height="266pt"
 viewBox="0.00 0.00 720.00 266.00" xmlns="http://www.w3.org/2000/svg" xmlns:xlink="http://www.w3.org/1999/xlink">
<g id="graph0" class="graph" transform="scale(0.694252 0.694252) rotate(0) translate(4 379.58)">
<polygon fill="white" stroke="none" points="-4,4 -4,-379.58 1033.09,-379.58 1033.09,4 -4,4"/>
<!-- modulok.astro_core -->
<g id="node1" class="node">
<title>modulok.astro_core</title>
<g id="a_node1"><a xlink:href="http://localhost:8888/notebooks/modulok/astro_core.py" xlink:title="modulok.astro_core" target="_blank">
<ellipse fill="none" stroke="black" cx="767.38" cy="-220.78" rx="85.13" ry="18"/>
<text xml:space="preserve" text-anchor="middle" x="767.38" y="-215.73" font-family="Times New Roman,serif" font-size="14.00">modulok.astro_core</text>
</a>
</g>
</g>
<!-- modulok.config -->
<g id="node2" class="node">
<title>modulok.config</title>
<g id="a_node2"><a xlink:href="http://localhost:8888/notebooks/modulok/config.py" xlink:title="modulok.config" target="_blank">
<ellipse fill="none" stroke="black" cx="958.8" cy="-220.78" rx="70.29" ry="18"/>
<text xml:space="preserve" text-anchor="middle" x="958.8" y="-215.73" font-family="Times New Roman,serif" font-size="14.00">modulok.config</text>
</a>
</g>
</g>
<!-- modulok.astro_core&#45;&gt;modulok.config -->
<g id="edge2" class="edge">
<title>modulok.astro_core&#45;&gt;modulok.config</title>
<path fill="none" stroke="black" d="M852.84,-220.78C860.79,-220.78 868.85,-220.78 876.77,-220.78"/>
<polygon fill="black" stroke="black" points="876.74,-224.28 886.74,-220.78 876.74,-217.28 876.74,-224.28"/>
</g>
<!-- modulok.tables -->
<g id="node8" class="node">
<title>modulok.tables</title>
<g id="a_node8"><a xlink:href="http://localhost:8888/notebooks/modulok/tables.py" xlink:title="modulok.tables" target="_blank">
<ellipse fill="none" stroke="black" cx="958.8" cy="-136.78" rx="68.24" ry="18"/>
<text xml:space="preserve" text-anchor="middle" x="958.8" y="-131.73" font-family="Times New Roman,serif" font-size="14.00">modulok.tables</text>
</a>
</g>
</g>
<!-- modulok.astro_core&#45;&gt;modulok.tables -->
<g id="edge1" class="edge">
<title>modulok.astro_core&#45;&gt;modulok.tables</title>
<path fill="none" stroke="black" d="M805.35,-204.38C835.95,-190.81 879.56,-171.47 912.3,-156.95"/>
<polygon fill="black" stroke="black" points="913.42,-160.29 921.14,-153.04 910.58,-153.89 913.42,-160.29"/>
</g>
<!-- modulok.draw -->
<g id="node3" class="node">
<title>modulok.draw</title>
<g id="a_node3"><a xlink:href="http://localhost:8888/notebooks/modulok/draw.py" xlink:title="modulok.draw" target="_blank">
<ellipse fill="none" stroke="black" cx="550.37" cy="-151.78" rx="65.17" ry="18"/>
<text xml:space="preserve" text-anchor="middle" x="550.37" y="-146.73" font-family="Times New Roman,serif" font-size="14.00">modulok.draw</text>
</a>
</g>
</g>
<!-- modulok.draw&#45;&gt;modulok.astro_core -->
<g id="edge3" class="edge">
<title>modulok.draw&#45;&gt;modulok.astro_core</title>
<path fill="none" stroke="black" d="M594.11,-165.49C626.85,-176 672.37,-190.61 708.39,-202.17"/>
<polygon fill="black" stroke="black" points="707.21,-205.47 717.8,-205.19 709.35,-198.8 707.21,-205.47"/>
</g>
<!-- modulok.draw&#45;&gt;modulok.config -->
<g id="edge4" class="edge">
<title>modulok.draw&#45;&gt;modulok.config</title>
<path fill="none" stroke="black" d="M611.7,-158.17C672.73,-165.11 769.65,-177.43 852.51,-193.78 867.85,-196.81 884.3,-200.7 899.52,-204.59"/>
<polygon fill="black" stroke="black" points="898.34,-207.9 908.9,-207.02 900.1,-201.12 898.34,-207.9"/>
</g>
<!-- modulok.draw&#45;&gt;modulok.tables -->
<g id="edge5" class="edge">
<title>modulok.draw&#45;&gt;modulok.tables</title>
<path fill="none" stroke="black" d="M615.32,-149.42C686.91,-146.78 802.93,-142.49 879.8,-139.66"/>
<polygon fill="black" stroke="black" points="879.47,-143.17 889.33,-139.31 879.21,-136.18 879.47,-143.17"/>
</g>
<!-- modulok.load_alomszotar -->
<g id="node4" class="node">
<title>modulok.load_alomszotar</title>
<g id="a_node4"><a xlink:href="http://localhost:8888/notebooks/modulok/load_alomszotar.py" xlink:title="modulok.load_alomszotar" target="_blank">
<ellipse fill="none" stroke="black" cx="310.33" cy="-201.78" rx="108.16" ry="18"/>
<text xml:space="preserve" text-anchor="middle" x="310.33" y="-196.73" font-family="Times New Roman,serif" font-size="14.00">modulok.load_alomszotar</text>
</a>
</g>
</g>
<!-- modulok.music_prompt -->
<g id="node5" class="node">
<title>modulok.music_prompt</title>
<g id="a_node5"><a xlink:href="http://localhost:8888/notebooks/modulok/music_prompt.py" xlink:title="modulok.music_prompt" target="_blank">
<ellipse fill="none" stroke="black" cx="310.33" cy="-255.78" rx="101" ry="18"/>
<text xml:space="preserve" text-anchor="middle" x="310.33" y="-250.73" font-family="Times New Roman,serif" font-size="14.00">modulok.music_prompt</text>
</a>
</g>
</g>
<!-- modulok.prashna_core -->
<g id="node6" class="node">
<title>modulok.prashna_core</title>
<g id="a_node6"><a xlink:href="http://localhost:8888/notebooks/modulok/prashna_core.py" xlink:title="modulok.prashna_core" target="_blank">
<ellipse fill="none" stroke="black" cx="550.37" cy="-220.78" rx="95.88" ry="18"/>
<text xml:space="preserve" text-anchor="middle" x="550.37" y="-215.73" font-family="Times New Roman,serif" font-size="14.00">modulok.prashna_core</text>
</a>
</g>
</g>
<!-- modulok.music_prompt&#45;&gt;modulok.prashna_core -->
<g id="edge6" class="edge">
<title>modulok.music_prompt&#45;&gt;modulok.prashna_core</title>
<path fill="none" stroke="black" d="M389.6,-244.27C413,-240.83 438.78,-237.04 462.69,-233.52"/>
<polygon fill="black" stroke="black" points="463,-237.02 472.39,-232.1 461.98,-230.09 463,-237.02"/>
</g>
<!-- modulok.prashna_core&#45;&gt;modulok.astro_core -->
<g id="edge7" class="edge">
<title>modulok.prashna_core&#45;&gt;modulok.astro_core</title>
<path fill="none" stroke="black" d="M646.62,-220.78C654.63,-220.78 662.74,-220.78 670.76,-220.78"/>
<polygon fill="black" stroke="black" points="670.5,-224.28 680.5,-220.78 670.5,-217.28 670.5,-224.28"/>
</g>
<!-- modulok.score_renderer -->
<g id="node7" class="node">
<title>modulok.score_renderer</title>
<g id="a_node7"><a xlink:href="http://localhost:8888/notebooks/modulok/score_renderer.py" xlink:title="modulok.score_renderer" target="_blank">
<ellipse fill="none" stroke="black" cx="310.33" cy="-71.78" rx="101.51" ry="18"/>
<text xml:space="preserve" text-anchor="middle" x="310.33" y="-66.73" font-family="Times New Roman,serif" font-size="14.00">modulok.score_renderer</text>
</a>
</g>
</g>
<!-- modulok._init_ -->
<g id="node9" class="node">
<title>modulok._init_</title>
<g id="a_node9"><a xlink:href="http://localhost:8888/notebooks/modulok/_init_.py" xlink:title="modulok._init_" target="_blank">
<ellipse fill="none" stroke="black" cx="83.08" cy="-232.78" rx="68.24" ry="18"/>
<text xml:space="preserve" text-anchor="middle" x="83.08" y="-227.73" font-family="Times New Roman,serif" font-size="14.00">modulok._init_</text>
</a>
</g>
</g>
<!-- gui.dreamy_widget -->
<g id="node10" class="node">
<title>gui.dreamy_widget</title>
<g id="a_node10"><a xlink:href="http://localhost:8888/notebooks/gui/dreamy_widget.py" xlink:title="gui.dreamy_widget" target="_blank">
<ellipse fill="none" stroke="black" cx="83.08" cy="-178.78" rx="83.08" ry="18"/>
<text xml:space="preserve" text-anchor="middle" x="83.08" y="-173.73" font-family="Times New Roman,serif" font-size="14.00">gui.dreamy_widget</text>
</a>
</g>
</g>
<!-- gui.dreamy_widget&#45;&gt;modulok.astro_core -->
<g id="edge8" class="edge">
<title>gui.dreamy_widget&#45;&gt;modulok.astro_core</title>
<path fill="none" stroke="black" d="M142.91,-191.52C151.35,-195.15 159.43,-199.81 166.17,-205.78 194.43,-230.85 170.3,-262.5 202.17,-282.78 283.76,-334.7 571.91,-270.56 701.91,-237.8"/>
<polygon fill="black" stroke="black" points="702.57,-241.25 711.4,-235.4 700.84,-234.46 702.57,-241.25"/>
</g>
<!-- gui.dreamy_widget&#45;&gt;modulok.config -->
<g id="edge15" class="edge">
<title>gui.dreamy_widget&#45;&gt;modulok.config</title>
<path fill="none" stroke="black" d="M144.26,-191.34C152.32,-194.99 159.94,-199.7 166.17,-205.78 200.28,-239.06 163.22,-279.31 202.17,-306.78 430.21,-467.59 796.72,-304.27 917.65,-242.4"/>
<polygon fill="black" stroke="black" points="918.97,-245.66 926.25,-237.95 915.76,-239.44 918.97,-245.66"/>
</g>
<!-- gui.dreamy_widget&#45;&gt;modulok.draw -->
<g id="edge11" class="edge">
<title>gui.dreamy_widget&#45;&gt;modulok.draw</title>
<path fill="none" stroke="black" d="M124.35,-162.82C146.85,-154.76 175.62,-145.84 202.17,-141.78 297.59,-127.18 409.45,-134.75 479.87,-142.47"/>
<polygon fill="black" stroke="black" points="479.4,-145.94 489.73,-143.59 480.18,-138.98 479.4,-145.94"/>
</g>
<!-- gui.dreamy_widget&#45;&gt;modulok.load_alomszotar -->
<g id="edge9" class="edge">
<title>gui.dreamy_widget&#45;&gt;modulok.load_alomszotar</title>
<path fill="none" stroke="black" d="M159.09,-186.44C174.02,-187.96 189.95,-189.59 205.64,-191.19"/>
<polygon fill="black" stroke="black" points="205.21,-194.66 215.51,-192.2 205.92,-187.7 205.21,-194.66"/>
</g>
<!-- gui.dreamy_widget&#45;&gt;modulok.music_prompt -->
<g id="edge10" class="edge">
<title>gui.dreamy_widget&#45;&gt;modulok.music_prompt</title>
<path fill="none" stroke="black" d="M134.78,-193.25C145.35,-196.87 156.27,-201.08 166.17,-205.78 183.32,-213.92 184.74,-221.25 202.17,-228.78 211.19,-232.67 220.89,-236.09 230.64,-239.07"/>
<polygon fill="black" stroke="black" points="229.6,-242.41 240.18,-241.82 231.54,-235.69 229.6,-242.41"/>
</g>
<!-- gui.dreamy_widget&#45;&gt;modulok.prashna_core -->
<g id="edge12" class="edge">
<title>gui.dreamy_widget&#45;&gt;modulok.prashna_core</title>
<path fill="none" stroke="black" d="M157.41,-170.36C225.56,-164.32 329.64,-159.62 418.49,-174.78 446.93,-179.63 477.4,-190.01 501.79,-199.69"/>
<polygon fill="black" stroke="black" points="500.2,-202.82 510.78,-203.34 502.84,-196.34 500.2,-202.82"/>
</g>
<!-- gui.dreamy_widget&#45;&gt;modulok.score_renderer -->
<g id="edge13" class="edge">
<title>gui.dreamy_widget&#45;&gt;modulok.score_renderer</title>
<path fill="none" stroke="black" d="M107.4,-161.22C130.46,-144.54 167.26,-119.71 202.17,-103.78 213.64,-98.54 226.2,-93.9 238.54,-89.89"/>
<polygon fill="black" stroke="black" points="239.36,-93.31 247.86,-86.99 237.27,-86.63 239.36,-93.31"/>
</g>
<!-- gui.dreamy_widget&#45;&gt;modulok.tables -->
<g id="edge14" class="edge">
<title>gui.dreamy_widget&#45;&gt;modulok.tables</title>
<path fill="none" stroke="black" d="M93.41,-160.52C110.26,-129.79 149.04,-68.77 202.17,-44.78 452.65,68.35 794.86,-63.05 914.44,-116.33"/>
<polygon fill="black" stroke="black" points="912.72,-119.4 923.27,-120.31 915.59,-113.01 912.72,-119.4"/>
</g>
<!-- gui.__init__ -->
<g id="node11" class="node">
<title>gui.__init__</title>
<g id="a_node11"><a xlink:href="http://localhost:8888/notebooks/gui/__init__.py" xlink:title="gui.__init__" target="_blank">
<ellipse fill="none" stroke="black" cx="83.08" cy="-286.78" rx="55.96" ry="18"/>
<text xml:space="preserve" text-anchor="middle" x="83.08" y="-281.73" font-family="Times New Roman,serif" font-size="14.00">gui.__init__</text>
</a>
</g>
</g>
</g>
</svg>
