<?xml version="1.0" encoding="UTF-8" standalone="no"?>
<!DOCTYPE svg PUBLIC "-//W3C//DTD SVG 1.1//EN"
 "http://www.w3.org/Graphics/SVG/1.1/DTD/svg11.dtd">
<!-- Generated by graphviz version 13.1.2 (20250808.2320)
 -->
<!-- Pages: 1 -->
<svg width="720pt" height="347pt"
 viewBox="0.00 0.00 720.00 347.00" xmlns="http://www.w3.org/2000/svg" xmlns:xlink="http://www.w3.org/1999/xlink">
<g id="graph0" class="graph" transform="scale(0.724836 0.724836) rotate(0) translate(4 474.59)">
<polygon fill="white" stroke="none" points="-4,4 -4,-474.59 989.33,-474.59 989.33,4 -4,4"/>
<!-- prashna_core -->
<g id="node1" class="node">
<title>prashna_core</title>
<g id="a_node1"><a xlink:href="file:///C:/Users/MZs/Documents/A pykódok/sj/open_scripts/open_prashna_core.bat" xlink:title="prashna_core" target="_blank">
<ellipse fill="none" stroke="black" cx="640.71" cy="-62" rx="60.05" ry="18"/>
<text xml:space="preserve" text-anchor="middle" x="640.71" y="-56.95" font-family="Times New Roman,serif" font-size="14.00">prashna_core</text>
</a>
</g>
</g>
<!-- astro_core -->
<g id="node5" class="node">
<title>astro_core</title>
<ellipse fill="none" stroke="black" cx="817.28" cy="-261" rx="49.3" ry="18"/>
<text xml:space="preserve" text-anchor="middle" x="817.28" y="-255.95" font-family="Times New Roman,serif" font-size="14.00">astro_core</text>
</g>
<!-- prashna_core&#45;&gt;astro_core -->
<g id="edge26" class="edge">
<title>prashna_core&#45;&gt;astro_core</title>
<path fill="none" stroke="blue" d="M662.44,-79.2C678.38,-92.83 700.57,-112.73 718.16,-132 748.57,-165.32 779.37,-207.49 798.15,-234.37"/>
<polygon fill="blue" stroke="blue" points="795.07,-236.06 803.64,-242.29 800.82,-232.08 795.07,-236.06"/>
</g>
<!-- config -->
<g id="node7" class="node">
<title>config</title>
<ellipse fill="none" stroke="black" cx="950.87" cy="-196" rx="34.46" ry="18"/>
<text xml:space="preserve" text-anchor="middle" x="950.87" y="-190.95" font-family="Times New Roman,serif" font-size="14.00">config</text>
</g>
<!-- prashna_core&#45;&gt;config -->
<g id="edge27" class="edge">
<title>prashna_core&#45;&gt;config</title>
<path fill="none" stroke="blue" d="M698.6,-57.1C749.88,-55.43 825.44,-60.06 880.41,-94 908.23,-111.18 927.57,-144.13 938.65,-167.94"/>
<polygon fill="blue" stroke="blue" points="935.3,-169.03 942.54,-176.76 941.7,-166.2 935.3,-169.03"/>
</g>
<!-- media_pipeline -->
<g id="node2" class="node">
<title>media_pipeline</title>
<ellipse fill="none" stroke="black" cx="295.74" cy="-328" rx="68.24" ry="18"/>
<text xml:space="preserve" text-anchor="middle" x="295.74" y="-322.95" font-family="Times New Roman,serif" font-size="14.00">media_pipeline</text>
</g>
<!-- elemzes -->
<g id="node3" class="node">
<title>elemzes</title>
<ellipse fill="none" stroke="black" cx="463.62" cy="-330" rx="41.12" ry="18"/>
<text xml:space="preserve" text-anchor="middle" x="463.62" y="-324.95" font-family="Times New Roman,serif" font-size="14.00">elemzes</text>
</g>
<!-- media_pipeline&#45;&gt;elemzes -->
<g id="edge1" class="edge">
<title>media_pipeline&#45;&gt;elemzes</title>
<path fill="none" stroke="blue" d="M364.21,-328.81C379.78,-329 396.1,-329.2 410.88,-329.38"/>
<polygon fill="blue" stroke="blue" points="410.8,-332.88 420.84,-329.5 410.89,-325.88 410.8,-332.88"/>
</g>
<!-- draw -->
<g id="node4" class="node">
<title>draw</title>
<ellipse fill="none" stroke="black" cx="640.71" cy="-414" rx="29.34" ry="18"/>
<text xml:space="preserve" text-anchor="middle" x="640.71" y="-408.95" font-family="Times New Roman,serif" font-size="14.00">draw</text>
</g>
<!-- elemzes&#45;&gt;draw -->
<g id="edge13" class="edge">
<title>elemzes&#45;&gt;draw</title>
<path fill="none" stroke="blue" d="M489.85,-344.1C509.59,-354.93 537.87,-370.02 563.25,-382 576.67,-388.33 591.69,-394.75 604.83,-400.17"/>
<polygon fill="blue" stroke="blue" points="603.38,-403.35 613.96,-403.88 606.02,-396.87 603.38,-403.35"/>
</g>
<!-- elemzes&#45;&gt;astro_core -->
<g id="edge16" class="edge">
<title>elemzes&#45;&gt;astro_core</title>
<path fill="none" stroke="blue" d="M504.98,-331.82C555.73,-333.01 645.05,-331.47 718.16,-311 740.58,-304.72 763.87,-293.1 782.14,-282.64"/>
<polygon fill="blue" stroke="blue" points="783.85,-285.69 790.69,-277.6 780.3,-279.66 783.85,-285.69"/>
</g>
<!-- tables -->
<g id="node6" class="node">
<title>tables</title>
<ellipse fill="none" stroke="black" cx="950.87" cy="-433" rx="32.41" ry="18"/>
<text xml:space="preserve" text-anchor="middle" x="950.87" y="-427.95" font-family="Times New Roman,serif" font-size="14.00">tables</text>
</g>
<!-- elemzes&#45;&gt;tables -->
<g id="edge14" class="edge">
<title>elemzes&#45;&gt;tables</title>
<path fill="none" stroke="blue" d="M473.85,-347.64C488.65,-373.78 520.45,-421.78 563.25,-441 680.68,-493.74 839.09,-462.99 911.21,-444.23"/>
<polygon fill="blue" stroke="blue" points="911.81,-447.69 920.57,-441.73 910,-440.93 911.81,-447.69"/>
</g>
<!-- elemzes&#45;&gt;config -->
<g id="edge17" class="edge">
<title>elemzes&#45;&gt;config</title>
<path fill="none" stroke="blue" d="M501.64,-337.2C579.46,-350.19 762.54,-369.16 880.41,-288 904.38,-271.49 923.53,-244.05 935.6,-223.42"/>
<polygon fill="blue" stroke="blue" points="938.51,-225.39 940.36,-214.96 932.41,-221.96 938.51,-225.39"/>
</g>
<!-- dasa_tools -->
<g id="node10" class="node">
<title>dasa_tools</title>
<ellipse fill="none" stroke="black" cx="640.71" cy="-192" rx="49.82" ry="18"/>
<text xml:space="preserve" text-anchor="middle" x="640.71" y="-186.95" font-family="Times New Roman,serif" font-size="14.00">dasa_tools</text>
</g>
<!-- elemzes&#45;&gt;dasa_tools -->
<g id="edge15" class="edge">
<title>elemzes&#45;&gt;dasa_tools</title>
<path fill="none" stroke="blue" d="M484.7,-314.17C515.38,-289.99 574.08,-243.72 609.79,-215.58"/>
<polygon fill="blue" stroke="blue" points="611.89,-218.38 617.58,-209.44 607.56,-212.88 611.89,-218.38"/>
</g>
<!-- varshaphala_tools -->
<g id="node11" class="node">
<title>varshaphala_tools</title>
<ellipse fill="none" stroke="black" cx="640.71" cy="-284" rx="77.45" ry="18"/>
<text xml:space="preserve" text-anchor="middle" x="640.71" y="-278.95" font-family="Times New Roman,serif" font-size="14.00">varshaphala_tools</text>
</g>
<!-- elemzes&#45;&gt;varshaphala_tools -->
<g id="edge18" class="edge">
<title>elemzes&#45;&gt;varshaphala_tools</title>
<path fill="none" stroke="green" d="M499.63,-320.8C521.81,-314.97 551.13,-307.27 577.21,-300.42"/>
<polygon fill="green" stroke="green" points="577.91,-303.85 586.69,-297.93 576.13,-297.08 577.91,-303.85"/>
</g>
<!-- draw&#45;&gt;astro_core -->
<g id="edge2" class="edge">
<title>draw&#45;&gt;astro_core</title>
<path fill="none" stroke="blue" d="M658.44,-399.33C688.63,-372.88 752.42,-316.97 788.99,-284.92"/>
<polygon fill="blue" stroke="blue" points="790.88,-287.92 796.09,-278.7 786.26,-282.66 790.88,-287.92"/>
</g>
<!-- draw&#45;&gt;tables -->
<g id="edge3" class="edge">
<title>draw&#45;&gt;tables</title>
<path fill="none" stroke="blue" d="M670.14,-415.75C724.43,-419.1 843.09,-426.42 907.03,-430.36"/>
<polygon fill="blue" stroke="blue" points="906.59,-433.84 916.79,-430.96 907.02,-426.85 906.59,-433.84"/>
</g>
<!-- draw&#45;&gt;config -->
<g id="edge4" class="edge">
<title>draw&#45;&gt;config</title>
<path fill="none" stroke="blue" d="M669.93,-417.09C718.59,-420.81 818.97,-421.25 880.41,-371 925.12,-334.43 941.2,-264.96 946.87,-225.43"/>
<polygon fill="blue" stroke="blue" points="950.32,-226.07 948.13,-215.7 943.38,-225.17 950.32,-226.07"/>
</g>
<!-- astro_core&#45;&gt;tables -->
<g id="edge20" class="edge">
<title>astro_core&#45;&gt;tables</title>
<path fill="none" stroke="blue" d="M831.62,-278.44C854.95,-308.94 903.26,-372.08 930.35,-407.49"/>
<polygon fill="blue" stroke="blue" points="927.3,-409.26 936.15,-415.08 932.86,-405.01 927.3,-409.26"/>
</g>
<!-- astro_core&#45;&gt;config -->
<g id="edge19" class="edge">
<title>astro_core&#45;&gt;config</title>
<path fill="none" stroke="blue" d="M847.81,-246.41C867.65,-236.61 893.88,-223.66 914.78,-213.33"/>
<polygon fill="blue" stroke="blue" points="916.09,-216.59 923.5,-209.02 912.99,-210.31 916.09,-216.59"/>
</g>
<!-- location_tools -->
<g id="node8" class="node">
<title>location_tools</title>
<ellipse fill="none" stroke="black" cx="817.28" cy="-18" rx="63.12" ry="18"/>
<text xml:space="preserve" text-anchor="middle" x="817.28" y="-12.95" font-family="Times New Roman,serif" font-size="14.00">location_tools</text>
</g>
<!-- location_tools&#45;&gt;config -->
<g id="edge5" class="edge">
<title>location_tools&#45;&gt;config</title>
<path fill="none" stroke="blue" d="M854.45,-32.93C863.72,-37.98 873.12,-44.33 880.41,-52 912.07,-85.34 931.84,-135.83 941.85,-167.31"/>
<polygon fill="blue" stroke="blue" points="938.4,-167.99 944.66,-176.54 945.1,-165.95 938.4,-167.99"/>
</g>
<!-- sonicjyotish -->
<g id="node9" class="node">
<title>sonicjyotish</title>
<ellipse fill="none" stroke="black" cx="95.75" cy="-238" rx="55.45" ry="18"/>
<text xml:space="preserve" text-anchor="middle" x="95.75" y="-232.95" font-family="Times New Roman,serif" font-size="14.00">sonicjyotish</text>
</g>
<!-- sonicjyotish&#45;&gt;prashna_core -->
<g id="edge12" class="edge">
<title>sonicjyotish&#45;&gt;prashna_core</title>
<path fill="none" stroke="green" d="M127.95,-223.11C182.19,-197.71 297.86,-145.69 399.98,-114 458.85,-95.73 527.77,-81.5 576.57,-72.58"/>
<polygon fill="green" stroke="green" points="576.88,-76.08 586.1,-70.86 575.64,-69.19 576.88,-76.08"/>
</g>
<!-- sonicjyotish&#45;&gt;media_pipeline -->
<g id="edge9" class="edge">
<title>sonicjyotish&#45;&gt;media_pipeline</title>
<path fill="none" stroke="green" d="M143.47,-247.35C159.24,-251.53 176.62,-257.29 191.5,-265 209.74,-274.45 210.24,-282.86 227.5,-294 234.61,-298.59 242.41,-303.03 250.11,-307.1"/>
<polygon fill="green" stroke="green" points="248.26,-310.08 258.76,-311.53 251.46,-303.86 248.26,-310.08"/>
</g>
<!-- sonicjyotish&#45;&gt;draw -->
<g id="edge6" class="edge">
<title>sonicjyotish&#45;&gt;draw</title>
<path fill="none" stroke="green" d="M148.71,-243.94C163.95,-247.87 179.69,-254.35 191.5,-265 223.49,-293.86 193.63,-328.37 227.5,-355 338.86,-442.54 521.23,-430.64 600.68,-420.24"/>
<polygon fill="green" stroke="green" points="601.15,-423.7 610.57,-418.87 600.19,-416.77 601.15,-423.7"/>
</g>
<!-- sonicjyotish&#45;&gt;astro_core -->
<g id="edge7" class="edge">
<title>sonicjyotish&#45;&gt;astro_core</title>
<path fill="none" stroke="green" d="M151.2,-239.48C259.29,-242.46 508.63,-249.53 718.16,-257 730.55,-257.44 743.82,-257.96 756.47,-258.46"/>
<polygon fill="green" stroke="green" points="756.23,-261.96 766.36,-258.87 756.51,-254.96 756.23,-261.96"/>
</g>
<!-- sonicjyotish&#45;&gt;location_tools -->
<g id="edge8" class="edge">
<title>sonicjyotish&#45;&gt;location_tools</title>
<path fill="none" stroke="green" d="M111.36,-220.62C133.74,-195.12 179.03,-147.83 227.5,-122 396.16,-32.12 626.78,-17.73 742.98,-16.73"/>
<polygon fill="green" stroke="green" points="742.71,-20.24 752.69,-16.69 742.67,-13.24 742.71,-20.24"/>
</g>
<!-- sonicjyotish&#45;&gt;dasa_tools -->
<g id="edge10" class="edge">
<title>sonicjyotish&#45;&gt;dasa_tools</title>
<path fill="none" stroke="green" d="M148.57,-232.1C172.57,-229.46 201.47,-226.4 227.5,-224 352.85,-212.43 499.91,-201.69 580.1,-196.08"/>
<polygon fill="green" stroke="green" points="580.19,-199.58 589.93,-195.39 579.71,-192.6 580.19,-199.58"/>
</g>
<!-- sonicjyotish&#45;&gt;varshaphala_tools -->
<g id="edge11" class="edge">
<title>sonicjyotish&#45;&gt;varshaphala_tools</title>
<path fill="none" stroke="green" d="M148.57,-243.9C172.57,-246.54 201.47,-249.6 227.5,-252 340.48,-262.43 471.09,-272.18 554.49,-278.11"/>
<polygon fill="green" stroke="green" points="554.2,-281.6 564.42,-278.82 554.7,-274.62 554.2,-281.6"/>
</g>
<!-- varshaphala_tools&#45;&gt;astro_core -->
<g id="edge25" class="edge">
<title>varshaphala_tools&#45;&gt;astro_core</title>
<path fill="none" stroke="green" d="M708.7,-275.17C725.26,-272.99 742.85,-270.67 758.9,-268.56"/>
<polygon fill="green" stroke="green" points="759.33,-272.03 768.79,-267.26 758.41,-265.09 759.33,-272.03"/>
</g>
<!-- dasa_mandala -->
<g id="node12" class="node">
<title>dasa_mandala</title>
<ellipse fill="none" stroke="black" cx="463.62" cy="-141" rx="63.63" ry="18"/>
<text xml:space="preserve" text-anchor="middle" x="463.62" y="-135.95" font-family="Times New Roman,serif" font-size="14.00">dasa_mandala</text>
</g>
<!-- dasa_mandala&#45;&gt;prashna_core -->
<g id="edge24" class="edge">
<title>dasa_mandala&#45;&gt;prashna_core</title>
<path fill="none" stroke="green" d="M496.42,-125.37C515.66,-116.03 540.74,-104.07 563.25,-94 572.9,-89.69 583.3,-85.21 593.23,-81.03"/>
<polygon fill="green" stroke="green" points="594.5,-84.29 602.37,-77.21 591.8,-77.84 594.5,-84.29"/>
</g>
<!-- dasa_mandala&#45;&gt;astro_core -->
<g id="edge21" class="edge">
<title>dasa_mandala&#45;&gt;astro_core</title>
<path fill="none" stroke="green" d="M524.92,-135.7C578.22,-133.52 656.79,-136.53 718.16,-165 751.26,-180.36 779.87,-211.69 797.52,-234.39"/>
<polygon fill="green" stroke="green" points="794.67,-236.43 803.48,-242.31 800.26,-232.22 794.67,-236.43"/>
</g>
<!-- dasa_mandala&#45;&gt;config -->
<g id="edge23" class="edge">
<title>dasa_mandala&#45;&gt;config</title>
<path fill="none" stroke="green" d="M522.96,-134.1C536.19,-132.81 550.19,-131.66 563.25,-131 632.01,-127.52 649.95,-121.61 718.16,-131 787.79,-140.58 865.98,-165.64 911.4,-181.7"/>
<polygon fill="green" stroke="green" points="910.19,-184.99 920.79,-185.06 912.55,-178.4 910.19,-184.99"/>
</g>
<!-- dasa_mandala&#45;&gt;dasa_tools -->
<g id="edge22" class="edge">
<title>dasa_mandala&#45;&gt;dasa_tools</title>
<path fill="none" stroke="blue" d="M508.8,-153.87C533.51,-161.07 564.38,-170.06 589.94,-177.5"/>
<polygon fill="blue" stroke="blue" points="588.87,-180.84 599.45,-180.27 590.83,-174.12 588.87,-180.84"/>
</g>
<!-- legend -->
<g id="node13" class="node">
<title>legend</title>
<polygon fill="lightgrey" stroke="black" points="185.5,-364.25 0,-364.25 0,-273.75 191.5,-273.75 191.5,-358.25 185.5,-364.25"/>
<polyline fill="none" stroke="black" points="185.5,-364.25 185.5,-358.25"/>
<polyline fill="none" stroke="black" points="191.5,-358.25 185.5,-358.25"/>
<text xml:space="preserve" text-anchor="middle" x="95.75" y="-346.95" font-family="Times New Roman,serif" font-size="14.00">Színkód:</text>
<text xml:space="preserve" text-anchor="middle" x="95.75" y="-330.45" font-family="Times New Roman,serif" font-size="14.00">🔵 AST + Regex</text>
<text xml:space="preserve" text-anchor="middle" x="95.75" y="-313.95" font-family="Times New Roman,serif" font-size="14.00">🟢 Regex</text>
<text xml:space="preserve" text-anchor="middle" x="95.75" y="-297.45" font-family="Times New Roman,serif" font-size="14.00">🔴 AST</text>
<text xml:space="preserve" text-anchor="middle" x="95.75" y="-280.95" font-family="Times New Roman,serif" font-size="14.00">🔴 Modul: körkörös importban</text>
</g>
</g>
</svg>
