<?xml version="1.0" encoding="UTF-8" standalone="no"?>
<!DOCTYPE svg PUBLIC "-//W3C//DTD SVG 1.1//EN"
 "http://www.w3.org/Graphics/SVG/1.1/DTD/svg11.dtd">
<!-- Generated by graphviz version 14.1.2 (20260124.0452)
 -->
<!-- Pages: 1 -->
<svg width="720pt" height="306pt"
 viewBox="0.00 0.00 720.00 306.00" xmlns="http://www.w3.org/2000/svg" xmlns:xlink="http://www.w3.org/1999/xlink">
<g id="graph0" class="graph" transform="scale(0.694252 0.694252) rotate(0) translate(4 437.08)">
<polygon fill="white" stroke="none" points="-4,4 -4,-437.08 1033.09,-437.08 1033.09,4 -4,4"/>
<!-- modulok.astro_core -->
<g id="node1" class="node">
<title>modulok.astro_core</title>
<g id="a_node1"><a xlink:href="http://localhost:8888/notebooks/modulok/astro_core.py" xlink:title="modulok.astro_core" target="_blank">
<ellipse fill="none" stroke="black" cx="767.38" cy="-273" rx="85.13" ry="18"/>
<text xml:space="preserve" text-anchor="middle" x="767.38" y="-267.95" font-family="Times New Roman,serif" font-size="14.00">modulok.astro_core</text>
</a>
</g>
</g>
<!-- modulok.config -->
<g id="node2" class="node">
<title>modulok.config</title>
<g id="a_node2"><a xlink:href="http://localhost:8888/notebooks/modulok/config.py" xlink:title="modulok.config" target="_blank">
<ellipse fill="none" stroke="black" cx="958.8" cy="-315" rx="70.29" ry="18"/>
<text xml:space="preserve" text-anchor="middle" x="958.8" y="-309.95" font-family="Times New Roman,serif" font-size="14.00">modulok.config</text>
</a>
</g>
</g>
<!-- modulok.astro_core&#45;&gt;modulok.config -->
<g id="edge1" class="edge">
<title>modulok.astro_core&#45;&gt;modulok.config</title>
<path fill="none" stroke="black" d="M827.53,-286.12C848.42,-290.75 872.01,-295.98 893.31,-300.7"/>
<polygon fill="black" stroke="black" points="892.55,-304.12 903.07,-302.87 894.07,-297.28 892.55,-304.12"/>
</g>
<!-- modulok.tables -->
<g id="node8" class="node">
<title>modulok.tables</title>
<g id="a_node8"><a xlink:href="http://localhost:8888/notebooks/modulok/tables.py" xlink:title="modulok.tables" target="_blank">
<ellipse fill="none" stroke="black" cx="958.8" cy="-198" rx="68.24" ry="18"/>
<text xml:space="preserve" text-anchor="middle" x="958.8" y="-192.95" font-family="Times New Roman,serif" font-size="14.00">modulok.tables</text>
</a>
</g>
</g>
<!-- modulok.astro_core&#45;&gt;modulok.tables -->
<g id="edge2" class="edge">
<title>modulok.astro_core&#45;&gt;modulok.tables</title>
<path fill="none" stroke="black" d="M809.01,-256.91C838.28,-245.32 877.92,-229.63 908.92,-217.35"/>
<polygon fill="black" stroke="black" points="910.07,-220.66 918.08,-213.73 907.5,-214.15 910.07,-220.66"/>
</g>
<!-- modulok.draw -->
<g id="node3" class="node">
<title>modulok.draw</title>
<g id="a_node3"><a xlink:href="http://localhost:8888/notebooks/modulok/draw.py" xlink:title="modulok.draw" target="_blank">
<ellipse fill="none" stroke="black" cx="550.37" cy="-198" rx="65.17" ry="18"/>
<text xml:space="preserve" text-anchor="middle" x="550.37" y="-192.95" font-family="Times New Roman,serif" font-size="14.00">modulok.draw</text>
</a>
</g>
</g>
<!-- modulok.draw&#45;&gt;modulok.astro_core -->
<g id="edge4" class="edge">
<title>modulok.draw&#45;&gt;modulok.astro_core</title>
<path fill="none" stroke="black" d="M592.06,-212.2C625.75,-223.95 673.93,-240.75 711.11,-253.72"/>
<polygon fill="black" stroke="black" points="709.75,-256.95 720.34,-256.94 712.05,-250.34 709.75,-256.95"/>
</g>
<!-- modulok.draw&#45;&gt;modulok.tables -->
<g id="edge3" class="edge">
<title>modulok.draw&#45;&gt;modulok.tables</title>
<path fill="none" stroke="black" d="M615.77,-198C687.09,-198 802.11,-198 878.82,-198"/>
<polygon fill="black" stroke="black" points="878.8,-201.5 888.8,-198 878.8,-194.5 878.8,-201.5"/>
</g>
<!-- modulok.load_alomszotar -->
<g id="node4" class="node">
<title>modulok.load_alomszotar</title>
<g id="a_node4"><a xlink:href="http://localhost:8888/notebooks/modulok/load_alomszotar.py" xlink:title="modulok.load_alomszotar" target="_blank">
<ellipse fill="none" stroke="black" cx="310.33" cy="-256" rx="108.16" ry="18"/>
<text xml:space="preserve" text-anchor="middle" x="310.33" y="-250.95" font-family="Times New Roman,serif" font-size="14.00">modulok.load_alomszotar</text>
</a>
</g>
</g>
<!-- modulok.music_prompt -->
<g id="node5" class="node">
<title>modulok.music_prompt</title>
<g id="a_node5"><a xlink:href="http://localhost:8888/notebooks/modulok/music_prompt.py" xlink:title="modulok.music_prompt" target="_blank">
<ellipse fill="none" stroke="black" cx="310.33" cy="-202" rx="101" ry="18"/>
<text xml:space="preserve" text-anchor="middle" x="310.33" y="-196.95" font-family="Times New Roman,serif" font-size="14.00">modulok.music_prompt</text>
</a>
</g>
</g>
<!-- modulok.prashna_core -->
<g id="node6" class="node">
<title>modulok.prashna_core</title>
<g id="a_node6"><a xlink:href="http://localhost:8888/notebooks/modulok/prashna_core.py" xlink:title="modulok.prashna_core" target="_blank">
<ellipse fill="none" stroke="black" cx="550.37" cy="-273" rx="95.88" ry="18"/>
<text xml:space="preserve" text-anchor="middle" x="550.37" y="-267.95" font-family="Times New Roman,serif" font-size="14.00">modulok.prashna_core</text>
</a>
</g>
</g>
<!-- modulok.music_prompt&#45;&gt;modulok.prashna_core -->
<g id="edge5" class="edge">
<title>modulok.music_prompt&#45;&gt;modulok.prashna_core</title>
<path fill="none" stroke="black" d="M372.47,-216.54C387.58,-220.36 403.67,-224.65 418.49,-229 443.31,-236.29 470.46,-245.25 493.57,-253.18"/>
<polygon fill="black" stroke="black" points="492.19,-256.41 502.79,-256.36 494.48,-249.79 492.19,-256.41"/>
</g>
<!-- modulok.prashna_core&#45;&gt;modulok.astro_core -->
<g id="edge6" class="edge">
<title>modulok.prashna_core&#45;&gt;modulok.astro_core</title>
<path fill="none" stroke="black" d="M646.62,-273C654.63,-273 662.74,-273 670.76,-273"/>
<polygon fill="black" stroke="black" points="670.5,-276.5 680.5,-273 670.5,-269.5 670.5,-276.5"/>
</g>
<!-- modulok.score_renderer -->
<g id="node7" class="node">
<title>modulok.score_renderer</title>
<g id="a_node7"><a xlink:href="http://localhost:8888/notebooks/modulok/score_renderer.py" xlink:title="modulok.score_renderer" target="_blank">
<ellipse fill="none" stroke="black" cx="310.33" cy="-110" rx="101.51" ry="18"/>
<text xml:space="preserve" text-anchor="middle" x="310.33" y="-104.95" font-family="Times New Roman,serif" font-size="14.00">modulok.score_renderer</text>
</a>
</g>
</g>
<!-- modulok._init_ -->
<g id="node9" class="node">
<title>modulok._init_</title>
<g id="a_node9"><a xlink:href="http://localhost:8888/notebooks/modulok/_init_.py" xlink:title="modulok._init_" target="_blank">
<ellipse fill="none" stroke="black" cx="83.08" cy="-256" rx="68.24" ry="18"/>
<text xml:space="preserve" text-anchor="middle" x="83.08" y="-250.95" font-family="Times New Roman,serif" font-size="14.00">modulok._init_</text>
</a>
</g>
</g>
<!-- gui.dreamy_widget -->
<g id="node10" class="node">
<title>gui.dreamy_widget</title>
<g id="a_node10"><a xlink:href="http://localhost:8888/notebooks/gui/dreamy_widget.py" xlink:title="gui.dreamy_widget" target="_blank">
<ellipse fill="none" stroke="black" cx="83.08" cy="-202" rx="83.08" ry="18"/>
<text xml:space="preserve" text-anchor="middle" x="83.08" y="-196.95" font-family="Times New Roman,serif" font-size="14.00">gui.dreamy_widget</text>
</a>
</g>
</g>
<!-- gui.dreamy_widget&#45;&gt;modulok.astro_core -->
<g id="edge9" class="edge">
<title>gui.dreamy_widget&#45;&gt;modulok.astro_core</title>
<path fill="none" stroke="black" d="M143.48,-214.76C151.74,-218.38 159.63,-223.03 166.17,-229 195.87,-256.1 168.55,-289.94 202.17,-312 367.24,-420.33 450.65,-326.94 646.25,-300 664.31,-297.51 683.68,-293.68 701.47,-289.69"/>
<polygon fill="black" stroke="black" points="702.18,-293.11 711.14,-287.46 700.61,-286.29 702.18,-293.11"/>
</g>
<!-- gui.dreamy_widget&#45;&gt;modulok.config -->
<g id="edge11" class="edge">
<title>gui.dreamy_widget&#45;&gt;modulok.config</title>
<path fill="none" stroke="black" d="M144.58,-214.25C152.6,-217.94 160.12,-222.75 166.17,-229 205.77,-269.94 156.58,-317.85 202.17,-352 421.5,-516.34 785.32,-388.19 912.35,-335.18"/>
<polygon fill="black" stroke="black" points="913.6,-338.45 921.45,-331.34 910.88,-332 913.6,-338.45"/>
</g>
<!-- gui.dreamy_widget&#45;&gt;modulok.draw -->
<g id="edge10" class="edge">
<title>gui.dreamy_widget&#45;&gt;modulok.draw</title>
<path fill="none" stroke="black" d="M135.38,-187.63C155.96,-182.56 180.02,-177.5 202.17,-175 297.7,-164.22 322.71,-166.65 418.49,-175 440.9,-176.95 465.21,-180.75 486.74,-184.71"/>
<polygon fill="black" stroke="black" points="486.09,-188.15 496.56,-186.57 487.39,-181.27 486.09,-188.15"/>
</g>
<!-- gui.dreamy_widget&#45;&gt;modulok.load_alomszotar -->
<g id="edge13" class="edge">
<title>gui.dreamy_widget&#45;&gt;modulok.load_alomszotar</title>
<path fill="none" stroke="black" d="M140.05,-215.42C169.07,-222.38 204.88,-230.96 236.08,-238.44"/>
<polygon fill="black" stroke="black" points="234.89,-241.75 245.43,-240.68 236.52,-234.95 234.89,-241.75"/>
</g>
<!-- gui.dreamy_widget&#45;&gt;modulok.music_prompt -->
<g id="edge8" class="edge">
<title>gui.dreamy_widget&#45;&gt;modulok.music_prompt</title>
<path fill="none" stroke="black" d="M166.36,-202C176.51,-202 187.02,-202 197.52,-202"/>
<polygon fill="black" stroke="black" points="197.37,-205.5 207.37,-202 197.37,-198.5 197.37,-205.5"/>
</g>
<!-- gui.dreamy_widget&#45;&gt;modulok.prashna_core -->
<g id="edge15" class="edge">
<title>gui.dreamy_widget&#45;&gt;modulok.prashna_core</title>
<path fill="none" stroke="black" d="M140.87,-215.14C149.85,-218.74 158.64,-223.28 166.17,-229 189.12,-246.46 176.74,-269.39 202.17,-283 293.07,-331.65 417.42,-310.86 489.99,-291.68"/>
<polygon fill="black" stroke="black" points="490.56,-295.15 499.29,-289.14 488.72,-288.4 490.56,-295.15"/>
</g>
<!-- gui.dreamy_widget&#45;&gt;modulok.score_renderer -->
<g id="edge14" class="edge">
<title>gui.dreamy_widget&#45;&gt;modulok.score_renderer</title>
<path fill="none" stroke="black" d="M113.97,-184.92C137.43,-171.98 171.2,-154.37 202.17,-142 214.56,-137.05 228.03,-132.45 241.1,-128.37"/>
<polygon fill="black" stroke="black" points="241.95,-131.76 250.5,-125.51 239.92,-125.07 241.95,-131.76"/>
</g>
<!-- gui.dreamy_widget&#45;&gt;modulok.tables -->
<g id="edge12" class="edge">
<title>gui.dreamy_widget&#45;&gt;modulok.tables</title>
<path fill="none" stroke="black" d="M95.12,-183.94C113.36,-156.06 152.73,-103.59 202.17,-83 329.29,-30.05 746.99,-138.56 900.52,-181.52"/>
<polygon fill="black" stroke="black" points="899.51,-184.87 910.08,-184.21 901.4,-178.13 899.51,-184.87"/>
</g>
<!-- modulok.prashna_engine -->
<g id="node12" class="node">
<title>modulok.prashna_engine</title>
<ellipse fill="none" stroke="black" cx="310.33" cy="-18" rx="104.58" ry="18"/>
<text xml:space="preserve" text-anchor="middle" x="310.33" y="-12.95" font-family="Times New Roman,serif" font-size="14.00">modulok.prashna_engine</text>
</g>
<!-- gui.dreamy_widget&#45;&gt;modulok.prashna_engine -->
<g id="edge7" class="edge">
<title>gui.dreamy_widget&#45;&gt;modulok.prashna_engine</title>
<path fill="none" stroke="black" d="M93.27,-183.8C110.32,-151.87 149.91,-85.77 202.17,-50 210.58,-44.24 220.05,-39.5 229.79,-35.6"/>
<polygon fill="black" stroke="black" points="230.83,-38.94 239.01,-32.21 228.41,-32.37 230.83,-38.94"/>
</g>
<!-- gui.__init__ -->
<g id="node11" class="node">
<title>gui.__init__</title>
<g id="a_node11"><a xlink:href="http://localhost:8888/notebooks/gui/__init__.py" xlink:title="gui.__init__" target="_blank">
<ellipse fill="none" stroke="black" cx="83.08" cy="-310" rx="55.96" ry="18"/>
<text xml:space="preserve" text-anchor="middle" x="83.08" y="-304.95" font-family="Times New Roman,serif" font-size="14.00">gui.__init__</text>
</a>
</g>
</g>
</g>
</svg>
