<?xml version="1.0" encoding="UTF-8" standalone="no"?>
<!DOCTYPE svg PUBLIC "-//W3C//DTD SVG 1.1//EN"
 "http://www.w3.org/Graphics/SVG/1.1/DTD/svg11.dtd">
<!-- Generated by graphviz version 13.1.2 (20250808.2320)
 -->
<!-- Pages: 1 -->
<svg width="720pt" height="289pt"
 viewBox="0.00 0.00 720.00 289.00" xmlns="http://www.w3.org/2000/svg" xmlns:xlink="http://www.w3.org/1999/xlink">
<g id="graph0" class="graph" transform="scale(0.730102 0.730102) rotate(0) translate(4 391.62)">
<polygon fill="white" stroke="none" points="-4,4 -4,-391.62 982.16,-391.62 982.16,4 -4,4"/>
<!-- draw -->
<g id="node1" class="node">
<title>draw</title>
<g id="a_node1"><a xlink:href="file:///C:/Users/MZs/Documents/A pykódok/sj/open_scripts/open_draw.bat" xlink:title="draw" target="_blank">
<ellipse fill="none" stroke="black" cx="650.94" cy="-328.62" rx="29.34" ry="18"/>
<text xml:space="preserve" text-anchor="middle" x="650.94" y="-323.57" font-family="Times New Roman,serif" font-size="14.00">draw</text>
</a>
</g>
</g>
<!-- astro_core -->
<g id="node3" class="node">
<title>astro_core</title>
<ellipse fill="none" stroke="black" cx="810.12" cy="-282.62" rx="49.3" ry="18"/>
<text xml:space="preserve" text-anchor="middle" x="810.12" y="-277.57" font-family="Times New Roman,serif" font-size="14.00">astro_core</text>
</g>
<!-- draw&#45;&gt;astro_core -->
<g id="edge23" class="edge">
<title>draw&#45;&gt;astro_core</title>
<path fill="none" stroke="blue" d="M677.9,-321.03C700.12,-314.52 732.74,-304.98 759.89,-297.03"/>
<polygon fill="blue" stroke="blue" points="760.69,-300.44 769.31,-294.27 758.73,-293.72 760.69,-300.44"/>
</g>
<!-- tables -->
<g id="node5" class="node">
<title>tables</title>
<ellipse fill="none" stroke="black" cx="943.7" cy="-366.62" rx="32.41" ry="18"/>
<text xml:space="preserve" text-anchor="middle" x="943.7" y="-361.57" font-family="Times New Roman,serif" font-size="14.00">tables</text>
</g>
<!-- draw&#45;&gt;tables -->
<g id="edge25" class="edge">
<title>draw&#45;&gt;tables</title>
<path fill="none" stroke="blue" d="M679.78,-332.91C698.72,-335.77 724.35,-339.57 746.99,-342.62 799.68,-349.73 860.47,-357.05 900.14,-361.7"/>
<polygon fill="blue" stroke="blue" points="899.65,-365.17 909.98,-362.86 900.46,-358.22 899.65,-365.17"/>
</g>
<!-- config -->
<g id="node6" class="node">
<title>config</title>
<ellipse fill="none" stroke="black" cx="943.7" cy="-236.62" rx="34.46" ry="18"/>
<text xml:space="preserve" text-anchor="middle" x="943.7" y="-231.57" font-family="Times New Roman,serif" font-size="14.00">config</text>
</g>
<!-- draw&#45;&gt;config -->
<g id="edge24" class="edge">
<title>draw&#45;&gt;config</title>
<path fill="none" stroke="blue" d="M680.15,-332.33C723.88,-336.76 809.63,-340.19 873.24,-309.62 894.59,-299.36 912.79,-279.53 925.2,-263.12"/>
<polygon fill="blue" stroke="blue" points="927.92,-265.34 930.93,-255.19 922.24,-261.25 927.92,-265.34"/>
</g>
<!-- prashna_core -->
<g id="node2" class="node">
<title>prashna_core</title>
<ellipse fill="none" stroke="black" cx="650.94" cy="-198.62" rx="60.05" ry="18"/>
<text xml:space="preserve" text-anchor="middle" x="650.94" y="-193.57" font-family="Times New Roman,serif" font-size="14.00">prashna_core</text>
</g>
<!-- prashna_core&#45;&gt;astro_core -->
<g id="edge1" class="edge">
<title>prashna_core&#45;&gt;astro_core</title>
<path fill="none" stroke="blue" d="M681.51,-214.42C706.9,-227.99 743.65,-247.64 771.2,-262.36"/>
<polygon fill="blue" stroke="blue" points="769.46,-265.4 779.93,-267.03 772.76,-259.23 769.46,-265.4"/>
</g>
<!-- astro_core&#45;&gt;tables -->
<g id="edge3" class="edge">
<title>astro_core&#45;&gt;tables</title>
<path fill="none" stroke="blue" d="M835.87,-298.42C857.4,-312.17 888.69,-332.14 911.85,-346.93"/>
<polygon fill="blue" stroke="blue" points="909.95,-349.87 920.26,-352.3 913.72,-343.97 909.95,-349.87"/>
</g>
<!-- astro_core&#45;&gt;config -->
<g id="edge4" class="edge">
<title>astro_core&#45;&gt;config</title>
<path fill="none" stroke="blue" d="M846.73,-270.18C864.37,-264.01 885.72,-256.54 903.8,-250.22"/>
<polygon fill="blue" stroke="blue" points="904.86,-253.56 913.14,-246.96 902.55,-246.95 904.86,-253.56"/>
</g>
<!-- varshaphala_tools -->
<g id="node4" class="node">
<title>varshaphala_tools</title>
<ellipse fill="none" stroke="black" cx="477.44" cy="-369.62" rx="77.45" ry="18"/>
<text xml:space="preserve" text-anchor="middle" x="477.44" y="-364.57" font-family="Times New Roman,serif" font-size="14.00">varshaphala_tools</text>
</g>
<!-- varshaphala_tools&#45;&gt;astro_core -->
<g id="edge2" class="edge">
<title>varshaphala_tools&#45;&gt;astro_core</title>
<path fill="none" stroke="green" d="M550.81,-375.74C597.83,-377.21 659.7,-374.34 710.99,-355.62 738.93,-345.43 765.68,-324.53 784.17,-307.7"/>
<polygon fill="green" stroke="green" points="786.55,-310.26 791.45,-300.87 781.76,-305.16 786.55,-310.26"/>
</g>
<!-- media_pipeline -->
<g id="node7" class="node">
<title>media_pipeline</title>
<ellipse fill="none" stroke="black" cx="295.74" cy="-263.62" rx="68.24" ry="18"/>
<text xml:space="preserve" text-anchor="middle" x="295.74" y="-258.57" font-family="Times New Roman,serif" font-size="14.00">media_pipeline</text>
</g>
<!-- elemzes -->
<g id="node8" class="node">
<title>elemzes</title>
<ellipse fill="none" stroke="black" cx="477.44" cy="-263.62" rx="41.12" ry="18"/>
<text xml:space="preserve" text-anchor="middle" x="477.44" y="-258.57" font-family="Times New Roman,serif" font-size="14.00">elemzes</text>
</g>
<!-- media_pipeline&#45;&gt;elemzes -->
<g id="edge5" class="edge">
<title>media_pipeline&#45;&gt;elemzes</title>
<path fill="none" stroke="blue" d="M364.42,-263.62C384.36,-263.62 405.85,-263.62 424.62,-263.62"/>
<polygon fill="blue" stroke="blue" points="424.41,-267.12 434.41,-263.62 424.41,-260.12 424.41,-267.12"/>
</g>
<!-- elemzes&#45;&gt;draw -->
<g id="edge10" class="edge">
<title>elemzes&#45;&gt;draw</title>
<path fill="none" stroke="blue" d="M509.49,-275.39C539.07,-286.6 583.54,-303.46 614.49,-315.19"/>
<polygon fill="blue" stroke="blue" points="613.22,-318.45 623.81,-318.72 615.7,-311.9 613.22,-318.45"/>
</g>
<!-- elemzes&#45;&gt;astro_core -->
<g id="edge6" class="edge">
<title>elemzes&#45;&gt;astro_core</title>
<path fill="none" stroke="blue" d="M518.65,-265.93C576.33,-269.25 682.94,-275.37 749.72,-279.21"/>
<polygon fill="blue" stroke="blue" points="749.2,-282.69 759.38,-279.77 749.6,-275.7 749.2,-282.69"/>
</g>
<!-- elemzes&#45;&gt;tables -->
<g id="edge8" class="edge">
<title>elemzes&#45;&gt;tables</title>
<path fill="none" stroke="blue" d="M492.73,-280.61C512.31,-302.49 549.76,-339.59 590.89,-355.62 696.65,-396.84 834.16,-384.04 901.66,-373.9"/>
<polygon fill="blue" stroke="blue" points="901.82,-377.42 911.16,-372.42 900.74,-370.51 901.82,-377.42"/>
</g>
<!-- elemzes&#45;&gt;config -->
<g id="edge9" class="edge">
<title>elemzes&#45;&gt;config</title>
<path fill="none" stroke="blue" d="M518.42,-261.3C604.6,-256.29 807.36,-244.49 897.79,-239.24"/>
<polygon fill="blue" stroke="blue" points="897.73,-242.75 907.51,-238.67 897.32,-235.76 897.73,-242.75"/>
</g>
<!-- dasa_tools -->
<g id="node9" class="node">
<title>dasa_tools</title>
<ellipse fill="none" stroke="black" cx="650.94" cy="-68.62" rx="49.82" ry="18"/>
<text xml:space="preserve" text-anchor="middle" x="650.94" y="-63.57" font-family="Times New Roman,serif" font-size="14.00">dasa_tools</text>
</g>
<!-- elemzes&#45;&gt;dasa_tools -->
<g id="edge7" class="edge">
<title>elemzes&#45;&gt;dasa_tools</title>
<path fill="none" stroke="blue" d="M493.36,-246.66C523.44,-212.46 591.52,-135.05 627.18,-94.5"/>
<polygon fill="blue" stroke="blue" points="629.71,-96.92 633.69,-87.1 624.46,-92.3 629.71,-96.92"/>
</g>
<!-- location_tools -->
<g id="node10" class="node">
<title>location_tools</title>
<ellipse fill="none" stroke="black" cx="810.12" cy="-26.62" rx="63.12" ry="18"/>
<text xml:space="preserve" text-anchor="middle" x="810.12" y="-21.57" font-family="Times New Roman,serif" font-size="14.00">location_tools</text>
</g>
<!-- location_tools&#45;&gt;config -->
<g id="edge11" class="edge">
<title>location_tools&#45;&gt;config</title>
<path fill="none" stroke="blue" d="M827.9,-44.27C841.16,-58.72 859.62,-80.07 873.24,-100.62 896.64,-135.94 917.89,-180.15 930.56,-208.4"/>
<polygon fill="blue" stroke="blue" points="927.28,-209.63 934.52,-217.36 933.68,-206.8 927.28,-209.63"/>
</g>
<!-- dasa_mandala -->
<g id="node11" class="node">
<title>dasa_mandala</title>
<ellipse fill="none" stroke="black" cx="477.44" cy="-143.62" rx="63.63" ry="18"/>
<text xml:space="preserve" text-anchor="middle" x="477.44" y="-138.57" font-family="Times New Roman,serif" font-size="14.00">dasa_mandala</text>
</g>
<!-- dasa_mandala&#45;&gt;prashna_core -->
<g id="edge12" class="edge">
<title>dasa_mandala&#45;&gt;prashna_core</title>
<path fill="none" stroke="green" d="M520.83,-157.22C544.25,-164.73 573.52,-174.12 598.27,-182.05"/>
<polygon fill="green" stroke="green" points="596.89,-185.29 607.48,-185.01 599.03,-178.62 596.89,-185.29"/>
</g>
<!-- dasa_mandala&#45;&gt;astro_core -->
<g id="edge14" class="edge">
<title>dasa_mandala&#45;&gt;astro_core</title>
<path fill="none" stroke="green" d="M539.73,-139.43C588.77,-138.7 657.88,-143.75 710.99,-171.62 747.18,-190.62 776.25,-228.8 793.1,-255.03"/>
<polygon fill="green" stroke="green" points="790.1,-256.84 798.35,-263.49 796.05,-253.15 790.1,-256.84"/>
</g>
<!-- dasa_mandala&#45;&gt;config -->
<g id="edge15" class="edge">
<title>dasa_mandala&#45;&gt;config</title>
<path fill="none" stroke="green" d="M539.99,-139.75C556.51,-138.87 574.37,-138.06 590.89,-137.62 644.25,-136.2 658.7,-126.92 710.99,-137.62 785.82,-152.94 866.37,-193.42 910.02,-217.61"/>
<polygon fill="green" stroke="green" points="908.29,-220.65 918.72,-222.5 911.72,-214.55 908.29,-220.65"/>
</g>
<!-- dasa_mandala&#45;&gt;dasa_tools -->
<g id="edge13" class="edge">
<title>dasa_mandala&#45;&gt;dasa_tools</title>
<path fill="none" stroke="blue" d="M513.14,-128.45C540.52,-116.48 578.8,-99.73 607.91,-87.01"/>
<polygon fill="blue" stroke="blue" points="609.03,-90.33 616.79,-83.12 606.23,-83.92 609.03,-90.33"/>
</g>
<!-- sonicjyotish -->
<g id="node12" class="node">
<title>sonicjyotish</title>
<ellipse fill="none" stroke="black" cx="95.75" cy="-198.62" rx="55.45" ry="18"/>
<text xml:space="preserve" text-anchor="middle" x="95.75" y="-193.57" font-family="Times New Roman,serif" font-size="14.00">sonicjyotish</text>
</g>
<!-- sonicjyotish&#45;&gt;draw -->
<g id="edge22" class="edge">
<title>sonicjyotish&#45;&gt;draw</title>
<path fill="none" stroke="green" d="M147.43,-205.36C162.79,-209.33 178.91,-215.62 191.5,-225.62 217.36,-246.16 199.83,-272.6 227.5,-290.62 289.86,-331.25 517.12,-331.41 609.99,-329.68"/>
<polygon fill="green" stroke="green" points="609.97,-333.18 619.89,-329.48 609.82,-326.18 609.97,-333.18"/>
</g>
<!-- sonicjyotish&#45;&gt;prashna_core -->
<g id="edge16" class="edge">
<title>sonicjyotish&#45;&gt;prashna_core</title>
<path fill="none" stroke="green" d="M151.56,-198.62C252.39,-198.62 467.18,-198.62 578.98,-198.62"/>
<polygon fill="green" stroke="green" points="578.94,-202.12 588.94,-198.62 578.94,-195.12 578.94,-202.12"/>
</g>
<!-- sonicjyotish&#45;&gt;astro_core -->
<g id="edge18" class="edge">
<title>sonicjyotish&#45;&gt;astro_core</title>
<path fill="none" stroke="green" d="M120.24,-182.11C145.62,-164.97 187.76,-138.5 227.5,-122.62 328.67,-82.22 620.6,19.17 710.99,-41.62 782.46,-89.69 801.9,-199.83 807.17,-252.92"/>
<polygon fill="green" stroke="green" points="803.67,-253.07 808.03,-262.73 810.64,-252.46 803.67,-253.07"/>
</g>
<!-- sonicjyotish&#45;&gt;varshaphala_tools -->
<g id="edge17" class="edge">
<title>sonicjyotish&#45;&gt;varshaphala_tools</title>
<path fill="none" stroke="green" d="M149.07,-204.17C164.34,-208.08 179.99,-214.64 191.5,-225.62 227.8,-260.26 189.02,-300.42 227.5,-332.62 273.72,-371.31 342.4,-379.05 395.92,-377.96"/>
<polygon fill="green" stroke="green" points="395.71,-381.46 405.59,-377.65 395.48,-374.47 395.71,-381.46"/>
</g>
<!-- sonicjyotish&#45;&gt;media_pipeline -->
<g id="edge20" class="edge">
<title>sonicjyotish&#45;&gt;media_pipeline</title>
<path fill="none" stroke="blue" d="M139.41,-210.04C155.78,-214.62 174.59,-220.11 191.5,-225.62 209.39,-231.46 228.81,-238.43 245.93,-244.8"/>
<polygon fill="blue" stroke="blue" points="244.24,-247.91 254.83,-248.14 246.7,-241.35 244.24,-247.91"/>
</g>
<!-- sonicjyotish&#45;&gt;dasa_tools -->
<g id="edge19" class="edge">
<title>sonicjyotish&#45;&gt;dasa_tools</title>
<path fill="none" stroke="blue" d="M137.7,-186.51C195.74,-169.58 305.4,-138.46 399.98,-116.62 466.43,-101.28 543.6,-86.99 594.42,-78.06"/>
<polygon fill="blue" stroke="blue" points="594.74,-81.56 603.99,-76.39 593.54,-74.66 594.74,-81.56"/>
</g>
<!-- sonicjyotish&#45;&gt;location_tools -->
<g id="edge21" class="edge">
<title>sonicjyotish&#45;&gt;location_tools</title>
<path fill="none" stroke="green" d="M109.94,-180.95C131.46,-153.38 176.85,-100.34 227.5,-71.62 394.45,23.02 632.91,2.21 745.55,-14.99"/>
<polygon fill="green" stroke="green" points="744.79,-18.42 755.21,-16.51 745.87,-11.5 744.79,-18.42"/>
</g>
<!-- legend -->
<g id="node13" class="node">
<title>legend</title>
<polygon fill="lightgrey" stroke="black" points="185.5,-324.87 0,-324.87 0,-234.37 191.5,-234.37 191.5,-318.87 185.5,-324.87"/>
<polyline fill="none" stroke="black" points="185.5,-324.87 185.5,-318.87"/>
<polyline fill="none" stroke="black" points="191.5,-318.87 185.5,-318.87"/>
<text xml:space="preserve" text-anchor="middle" x="95.75" y="-307.57" font-family="Times New Roman,serif" font-size="14.00">Színkód:</text>
<text xml:space="preserve" text-anchor="middle" x="95.75" y="-291.07" font-family="Times New Roman,serif" font-size="14.00">🔵 AST + Regex</text>
<text xml:space="preserve" text-anchor="middle" x="95.75" y="-274.57" font-family="Times New Roman,serif" font-size="14.00">🟢 Regex</text>
<text xml:space="preserve" text-anchor="middle" x="95.75" y="-258.07" font-family="Times New Roman,serif" font-size="14.00">🔴 AST</text>
<text xml:space="preserve" text-anchor="middle" x="95.75" y="-241.57" font-family="Times New Roman,serif" font-size="14.00">🔴 Modul: körkörös importban</text>
</g>
</g>
</svg>
